<?xml version="1.0" encoding="utf-8"?>
<!-- Generator: Adobe Illustrator 16.0.0, SVG Export Plug-In . SVG Version: 6.00 Build 0)  -->
<!DOCTYPE svg PUBLIC "-//W3C//DTD SVG 1.1//EN" "http://www.w3.org/Graphics/SVG/1.1/DTD/svg11.dtd">
<svg version="1.1" id="Capa_1" xmlns="http://www.w3.org/2000/svg" xmlns:xlink="http://www.w3.org/1999/xlink" x="0px" y="0px"
	 width="300px" height="427.857px" viewBox="0 0 300 427.857" enable-background="new 0 0 300 427.857" xml:space="preserve">
<path fill-rule="evenodd" clip-rule="evenodd" fill="#CE1F1E" d="M149.346,408.201c-12.73-0.001-25.467-0.239-38.186,0.11
	c-5.54,0.152-9.052-1.758-12.381-6.178c-14.872-19.746-29.979-39.321-45.294-58.727c-3.864-4.896-5.091-10.172-4.148-15.836
	c4.082-24.531-3.211-44.042-24.502-57.757c-4.836-3.116-6.178-7.666-6.355-13.478c-0.819-26.849-2.127-53.684-3.383-80.518
	c-0.251-5.39-0.983-10.943,4.459-14.23c8.272-4.994,8.767-12.617,8.492-21.103c-1.135-35.105,9.291-66.121,33.943-91.645
	c33.987-35.188,86.076-46.797,130.714-29.452c46.563,18.093,76.889,61.025,78.253,110.838c0.135,4.947,0.375,9.923,0.015,14.845
	c-0.445,6.127,0.975,11.193,6.373,14.604c6.217,3.926,7.023,9.603,6.64,16.488c-1.466,26.467-2.616,52.958-3.436,79.454
	c-0.188,6.097-1.313,10.995-6.608,14.446c-20.732,13.515-28.561,32.508-24.216,56.781c1.335,7.46-1.619,13.438-6.337,19.339
	c-13.892,17.375-27.477,35.007-40.676,52.913c-4.815,6.536-9.853,9.907-18.377,9.308
	C172.725,407.587,161.013,408.201,149.346,408.201z M58.561,170.867c0,7.066,1.084,14.349-0.276,21.142
	c-1.681,8.404,1.931,12.182,8.488,15.832c19.498,10.855,40.576,16.22,62.52,18.191c36.549,3.285,71.851-0.892,104.549-19.167
	c5.564-3.108,7.455-6.648,7.061-13.519c-1.88-32.816-3.012-65.741,8.303-97.426c1.696-4.747-0.329-7.227-2.779-10.296
	c-12.154-15.224-27.653-26.003-44.909-34.684c-6.609-3.324-9.099-1.852-10.73,5.239c-5.452,23.697-11.6,47.233-17.158,70.906
	c-1.502,6.398-4.039,9.567-11.282,8.896c-8.063-0.746-16.321-0.861-24.357,0.017c-8.742,0.955-11.286-3.034-13.014-10.73
	c-5.248-23.382-11.278-46.588-17.009-69.862c-1.072-4.352-1.863-8.373-8.28-5.383C80.81,58.82,64.349,70.608,51.365,87.042
	c-2.109,2.669-2.947,5.026-1.603,8.637C58.808,119.97,59.371,145.382,58.561,170.867z M148.614,335.258
	c9.905,0,19.896-0.804,29.696,0.215c10.779,1.122,15.385-2.218,17.364-13.335c2.091-11.743,4.702-23.393,16.644-31.502
	c18.185-12.35,32.657-29.039,45.813-46.793c10.548-14.235,19.048-28.347,7.815-46.089c-0.537-0.848-0.508-2.042-0.8-3.06
	c-7.097-24.703-8.479-50.047-8.589-75.55c-0.013-3.267,1.09-8.32-3.56-8.428c-3.98-0.091-2.815,5.082-3.353,7.85
	c-4.129,21.316-4.071,42.934-3.115,64.467c0.582,13.108,0.36,26.089-0.618,39.131c-0.589,7.835-3.528,12.938-11.806,15.088
	c-12.675,3.29-25.246,6.488-38.459,6.904c-6.924,0.219-12.524-0.787-15.666-7.764c-1.839-4.083-4.916-5.058-9.519-4.342
	c-14.037,2.183-28.186,2.172-42.234-0.034c-4.042-0.633-7.097-0.053-8.767,3.781c-3.456,7.937-9.917,8.704-17.483,8.338
	c-9.597-0.465-18.95-2.097-28.195-4.446c-19.745-5.018-19.453-5.111-21.162-25.266c-0.75-8.851-0.626-17.571-0.232-26.415
	c0.993-22.27,1.055-44.585-2.365-66.681c-0.563-3.636,0.427-10.718-4.307-10.478c-5.191,0.263-3.204,6.863-3.23,10.749
	c-0.201,30.903-2.784,61.403-14.512,90.426c-2.281,5.646-0.242,10.282,2.427,15.011c13.208,23.401,30.131,43.894,51.657,59.776
	c11.976,8.835,18.708,19.456,21.285,33.511c0.445,2.427,1.377,4.785,1.626,7.222c0.61,5.996,3.392,8.197,9.688,7.877
	C125.949,334.85,137.291,335.26,148.614,335.258z M149.974,341.22c-11.313,0-22.63,0.143-33.939-0.061
	c-5.528-0.101-8.583,0.455-6.898,7.585c1.854,7.841,2.577,16.059,2.808,24.141c0.194,6.818,2.697,9.407,9.523,9.307
	c18.734-0.271,37.479-0.278,56.212,0.003c6.947,0.104,9.184-2.745,9.395-9.439c0.254-8.082,1.139-16.246,2.811-24.149
	c1.244-5.881-0.201-7.593-5.971-7.46C172.606,341.408,161.289,341.225,149.974,341.22z M59.025,277.393
	c13.615,25.914,23.67,51.329,30.712,77.929c0.775,2.927,1.526,6.492,5.837,6.375c4.179-0.113,4.875-3.289,5.594-6.496
	C107.493,326.973,87.744,289.15,59.025,277.393z M235.854,277.743c-4.856,4.415-9.28,9.464-14.647,13.131
	c-22.22,15.178-24.32,37.843-23.594,61.622c0.113,3.727,0.072,8.434,5.216,9.109c5.429,0.713,5.914-4.149,6.841-7.691
	c4.542-17.376,10.963-34.079,17.648-50.705C230.539,295.198,235.834,288.045,235.854,277.743z M56.218,209.055
	c2.508,8.086-1.629,16.709,4.814,20.359c14.527,8.231,30.737,11.658,47.598,10.359c3.581-0.276,4.918-3.857,5.933-6.739
	c1.064-3.023-1.726-3.201-3.737-3.521C92.01,226.517,74.524,219.758,56.218,209.055z M241.5,209.591
	c-16.013,9.955-32.456,15.574-49.563,19.542c-2.709,0.629-8.46-1.756-7.229,4.34c0.845,4.188,4.074,6.91,9.287,6.785
	c10.268-0.245,20.257-1.788,30.034-4.833C241.446,229.998,241.439,229.979,241.5,209.591z"/>
<path fill-rule="evenodd" clip-rule="evenodd" fill="#FFCC07" d="M58.561,170.867c0.81-25.485,0.247-50.897-8.798-75.188
	c-1.344-3.611-0.507-5.968,1.603-8.637C64.349,70.608,80.81,58.82,99.687,50.023c6.417-2.99,7.208,1.031,8.28,5.383
	c5.731,23.273,11.762,46.479,17.009,69.862c1.728,7.696,4.272,11.685,13.014,10.73c8.036-0.878,16.294-0.763,24.357-0.017
	c7.243,0.672,9.78-2.497,11.282-8.896c5.559-23.673,11.706-47.209,17.158-70.906c1.632-7.091,4.121-8.563,10.73-5.239
	c17.256,8.68,32.755,19.46,44.909,34.684c2.45,3.069,4.476,5.549,2.779,10.296c-11.314,31.685-10.183,64.609-8.303,97.426
	c0.395,6.87-1.496,10.41-7.061,13.519c-32.698,18.275-68,22.453-104.549,19.167c-21.943-1.971-43.021-7.335-62.52-18.191
	c-6.557-3.65-10.169-7.428-8.488-15.832C59.645,185.216,58.561,177.933,58.561,170.867z"/>
<path fill-rule="evenodd" clip-rule="evenodd" fill="#FFCC07" d="M148.614,335.259c-11.323,0.001-22.665-0.41-33.957,0.163
	c-6.296,0.319-9.077-1.881-9.688-7.877c-0.249-2.437-1.182-4.795-1.626-7.222c-2.578-14.055-9.309-24.676-21.285-33.511
	c-21.526-15.882-38.448-36.375-51.657-59.776c-2.669-4.729-4.708-9.365-2.427-15.011c11.728-29.023,14.311-59.523,14.512-90.426
	c0.026-3.886-1.961-10.486,3.23-10.749c4.734-0.24,3.744,6.841,4.307,10.478c3.42,22.096,3.358,44.411,2.365,66.681
	c-0.394,8.844-0.518,17.564,0.232,26.415c1.709,20.154,1.417,20.248,21.162,25.266c9.245,2.35,18.598,3.981,28.195,4.446
	c7.567,0.366,14.027-0.401,17.483-8.338c1.67-3.834,4.726-4.415,8.767-3.781c14.049,2.206,28.198,2.217,42.234,0.034
	c4.603-0.716,7.68,0.259,9.519,4.342c3.142,6.977,8.742,7.982,15.666,7.764c13.213-0.417,25.784-3.614,38.459-6.904
	c8.277-2.15,11.217-7.253,11.806-15.088c0.979-13.042,1.2-26.023,0.618-39.131c-0.956-21.534-1.014-43.151,3.115-64.467
	c0.537-2.768-0.628-7.941,3.353-7.85c4.649,0.108,3.547,5.161,3.56,8.428c0.109,25.503,1.492,50.847,8.589,75.55
	c0.292,1.018,0.263,2.212,0.8,3.06c11.232,17.742,2.732,31.854-7.815,46.089c-13.155,17.755-27.628,34.444-45.813,46.793
	c-11.941,8.109-14.553,19.759-16.644,31.502c-1.979,11.117-6.585,14.457-17.364,13.335
	C168.509,334.454,158.519,335.258,148.614,335.259z"/>
<path fill-rule="evenodd" clip-rule="evenodd" fill="#FFCC07" d="M149.974,341.223c11.314,0.002,22.632,0.186,33.94-0.075
	c5.77-0.133,7.215,1.579,5.971,7.46c-1.672,7.903-2.557,16.067-2.811,24.149c-0.211,6.694-2.447,9.542-9.395,9.439
	c-18.733-0.281-37.478-0.275-56.212-0.003c-6.826,0.1-9.329-2.489-9.523-9.307c-0.231-8.082-0.954-16.299-2.808-24.141
	c-1.686-7.13,1.37-7.686,6.898-7.585C127.344,341.363,138.661,341.22,149.974,341.223z"/>
<path fill-rule="evenodd" clip-rule="evenodd" fill="#FFCC07" d="M59.025,277.393c28.718,11.757,48.467,49.581,42.143,77.808
	c-0.718,3.207-1.415,6.383-5.594,6.496c-4.311,0.117-5.062-3.448-5.837-6.375C82.696,328.722,72.64,303.306,59.025,277.393z"/>
<path fill-rule="evenodd" clip-rule="evenodd" fill="#FFCC07" d="M235.854,277.743c-0.021,10.302-5.315,17.455-8.536,25.465
	c-6.686,16.626-13.106,33.329-17.648,50.705c-0.927,3.542-1.412,8.404-6.841,7.691c-5.144-0.676-5.103-5.383-5.216-9.109
	c-0.727-23.779,1.374-46.444,23.594-61.622C226.574,287.208,230.998,282.158,235.854,277.743z"/>
<path fill-rule="evenodd" clip-rule="evenodd" fill="#FFFFFF" d="M56.218,209.055c18.306,10.703,35.792,17.461,54.608,20.459
	c2.011,0.32,4.801,0.498,3.737,3.521c-1.015,2.882-2.352,6.463-5.933,6.739c-16.86,1.299-33.071-2.128-47.598-10.359
	C54.589,225.764,58.727,217.141,56.218,209.055z"/>
<path fill-rule="evenodd" clip-rule="evenodd" fill="#FFFFFF" d="M241.5,209.591c-0.061,20.389-0.054,20.407-17.472,25.833
	c-9.777,3.045-19.767,4.589-30.034,4.833c-5.213,0.125-8.442-2.597-9.287-6.785c-1.23-6.096,4.521-3.711,7.229-4.34
	C209.044,225.165,225.487,219.546,241.5,209.591z"/>
</svg>
