<?xml version="1.0" encoding="utf-8"?>
<!-- Generator: Adobe Illustrator 16.0.0, SVG Export Plug-In . SVG Version: 6.00 Build 0)  -->
<!DOCTYPE svg PUBLIC "-//W3C//DTD SVG 1.1//EN" "http://www.w3.org/Graphics/SVG/1.1/DTD/svg11.dtd">
<svg version="1.1" id="Capa_1" xmlns="http://www.w3.org/2000/svg" xmlns:xlink="http://www.w3.org/1999/xlink" x="0px" y="0px"
	 width="551.286px" height="427.857px" viewBox="0 0 551.286 427.857" enable-background="new 0 0 551.286 427.857"
	 xml:space="preserve">
<path fill-rule="evenodd" clip-rule="evenodd" d="M13.049,114.215c5.665-6.556,11.333-13.107,16.992-19.668
	c5.08-5.889,10.149-11.789,15.223-17.685c6.45-7.496,12.897-14.994,19.348-22.488c6.67-7.749,13.343-15.496,20.019-23.241
	c4.933-5.724,9.857-11.455,14.832-17.142c0.406-0.464,1.156-0.656,1.777-0.89c0.292-0.11,0.661-0.019,0.995-0.019
	c113.25,0,226.5,0.002,339.75-0.028c1.44,0,2.47,0.372,3.466,1.439c11.611,12.441,23.257,24.852,34.911,37.252
	c8.19,8.714,16.415,17.395,24.611,26.104c10.482,11.137,20.952,22.284,31.425,33.432c0.948,1.01,1.867,2.049,2.846,3.123
	c-87.672,99.816-175.316,199.602-263.084,299.527c-2.352-2.658-4.594-5.182-6.822-7.717c-6.129-6.969-12.26-13.936-18.377-20.916
	c-6.85-7.814-13.674-15.652-20.531-23.461c-6.746-7.684-13.529-15.338-20.278-23.02c-7.704-8.768-15.384-17.557-23.084-26.328
	c-6.673-7.6-13.359-15.188-20.037-22.785c-6.935-7.889-13.865-15.781-20.799-23.672c-5.21-5.928-10.429-11.846-15.634-17.777
	c-6.891-7.855-13.767-15.723-20.66-23.575c-6.71-7.644-13.438-15.271-20.151-22.911c-6.934-7.891-13.86-15.787-20.792-23.679
	c-5.135-5.845-10.276-11.685-15.411-17.53c-6.896-7.85-13.779-15.713-20.686-23.554c-6.604-7.497-13.23-14.974-19.847-22.458
	C13.049,114.438,13.049,114.326,13.049,114.215z M454.25,116.504c-0.702,0-1.139,0-1.574,0c-27.991,0-55.983-0.012-83.975,0.037
	c-1.326,0.003-1.665-0.573-1.987-1.625c-1.312-4.271-2.553-8.573-4.067-12.775c-3.089-8.566-7.355-16.533-13.505-23.29
	c-13.55-14.89-30.518-24.081-49.853-29.077c-10.609-2.742-21.439-4.012-32.392-4.471c-10.369-0.435-20.708-0.035-30.867,1.89
	c-18.039,3.419-34.717,10.371-49.768,20.961c-5.568,3.918-10.487,8.559-14.031,14.511c-5.382,9.038-4.27,17.7,3.318,24.995
	c5.654,5.435,12.512,8.897,19.623,11.933c10.975,4.684,22.449,7.733,34.07,10.261c7.037,1.529,14.11,2.908,21.353,3.063
	c10.454,0.222,20.909,0.589,31.365,0.639c25.033,0.121,50.067-0.186,75.091,0.991c9.23,0.435,18.329,1.409,27.239,3.924
	c17.253,4.872,31.795,14.242,44.244,26.935c4.801,4.895,9.147,10.234,13.735,15.41c0.044-0.047,0.233-0.242,0.418-0.441
	c7.937-8.557,15.794-17.189,23.828-25.654c10.415-10.973,20.984-21.797,31.451-32.721c1.672-1.744,3.158-3.668,4.776-5.563
	c-16.739-16.91-31.48-35.456-48.128-52.235c-0.122,0.068-0.244,0.137-0.366,0.205C454.25,81.689,454.25,98.973,454.25,116.504z
	 M126.616,205.475c4.224,4.44,8.228,8.452,12.009,12.663c9.207,10.253,18.315,20.595,27.447,30.915
	c0.601,0.68,1.099,0.803,1.999,0.459c7.395-2.824,15.108-4.281,22.958-4.996c9.053-0.824,18.104-0.504,27.104,0.688
	c10.729,1.42,21.202,3.936,31.262,7.992c6.76,2.727,13.298,5.914,18.658,10.969c2.046,1.93,4.273,3.248,6.894,4.109
	c6.484,2.131,13.204,2.896,19.951,3.176c10.841,0.449,21.654-0.045,32.423-1.559c11.099-1.559,21.993-3.9,32.4-8.119
	c5.986-2.426,11.763-5.365,15.963-10.484c4.364-5.318,4.87-8.5,0.949-14.156c-2.36-3.404-5.644-5.797-9.232-7.745
	c-10.498-5.696-21.898-8.53-33.656-9.547c-10.734-0.929-21.544-0.979-32.319-1.454c-5.053-0.223-10.104-0.497-15.152-0.811
	c-7.705-0.48-15.408-1.005-23.11-1.527c-5.208-0.354-10.415-0.716-15.62-1.113c-6.473-0.495-12.941-1.033-19.412-1.547
	c-4.869-0.386-9.74-0.75-14.607-1.145c-6.197-0.501-12.393-1.027-18.589-1.533c-4.704-0.385-9.41-0.754-14.114-1.132
	c-6.363-0.512-12.726-1.036-19.089-1.536c-5.148-0.406-10.298-0.797-15.45-1.172C139.861,206.401,133.439,205.957,126.616,205.475z
	 M276.128,373.398c21.124-23.291,42.252-46.285,62.279-70.262c-40.179,15.021-80.219,14.197-120.48-0.092
	C237.318,326.486,256.622,349.82,276.128,373.398z M47.384,114.685c12.626,13.009,25.32,26.087,38.019,39.17
	c-0.02-0.136-0.019-0.299-0.068-0.444c-4.005-11.715-3.762-23.547-0.89-35.422c3.887-16.071,11.928-29.947,22.763-42.267
	c10.563-12.01,23.133-21.495,37.233-28.99c1.75-0.93,3.484-1.891,5.627-3.057c-0.777-0.059-1.046-0.097-1.314-0.097
	c-13.801-0.003-27.602-0.018-41.403,0.041c-0.711,0.003-1.581,0.473-2.097,1c-1.475,1.506-2.841,3.124-4.187,4.75
	c-6.579,7.956-13.181,15.895-19.691,23.906C74.83,81.33,68.441,89.513,61.873,97.549C57.203,103.262,52.35,108.824,47.384,114.685z
	 M383.304,69.693c6.812-8.009,13.47-15.838,20.346-23.923c-15.547,0-30.669,0-46.208,0
	C367.469,52.521,376.183,60.139,383.304,69.693z"/>
</svg>
